<svg width="257" height="270" viewBox="0 0 257 270" fill="none" xmlns="http://www.w3.org/2000/svg">
<g filter="url(#filter0_d_67_1229)">
<path fill-rule="evenodd" clip-rule="evenodd" d="M102.521 133.836C107.547 121.851 127.368 99.1259 129.196 100.026L136.843 118.371L142.404 112.256C143.28 113.725 144.1 115.088 144.868 116.368C148.84 122.98 151.457 127.335 153.63 132.319C155.78 135.855 157 139.896 157 144.189C157 158.073 144.24 169.328 128.5 169.328C112.76 169.328 100 158.073 100 144.189C100 140.498 100.902 136.993 102.521 133.836Z" fill="#FE6E6E"/>
<path fill-rule="evenodd" clip-rule="evenodd" d="M118.683 147.803C120.909 142.355 127.078 133.513 129.364 133.429C131.519 133.35 136.519 141.815 138.907 147.266C139.819 148.868 140.338 150.713 140.338 152.676C140.338 158.83 135.234 163.819 128.938 163.819C122.642 163.819 117.538 158.83 117.538 152.676C117.538 150.928 117.95 149.275 118.683 147.803Z" fill="#FFF5A0"/>
</g>
<defs>
<filter id="filter0_d_67_1229" x="0" y="0" width="257" height="269.328" filterUnits="userSpaceOnUse" color-interpolation-filters="sRGB">
<feFlood flood-opacity="0" result="BackgroundImageFix"/>
<feColorMatrix in="SourceAlpha" type="matrix" values="0 0 0 0 0 0 0 0 0 0 0 0 0 0 0 0 0 0 127 0" result="hardAlpha"/>
<feOffset/>
<feGaussianBlur stdDeviation="50"/>
<feComposite in2="hardAlpha" operator="out"/>
<feColorMatrix type="matrix" values="0 0 0 0 0.996078 0 0 0 0 0.431373 0 0 0 0 0.431373 0 0 0 1 0"/>
<feBlend mode="normal" in2="BackgroundImageFix" result="effect1_dropShadow_67_1229"/>
<feBlend mode="normal" in="SourceGraphic" in2="effect1_dropShadow_67_1229" result="shape"/>
</filter>
</defs>
</svg>
