<svg width="28" height="40" viewBox="0 0 28 40" fill="none" xmlns="http://www.w3.org/2000/svg">
<path fill-rule="evenodd" clip-rule="evenodd" d="M1.23855 16.6211C3.70705 10.734 13.4437 -0.429404 14.3421 0.0127534L18.0982 9.02431L20.8299 6.02045C21.2605 6.74203 21.6629 7.41186 22.0404 8.0402C23.9918 11.2884 25.2771 13.4278 26.3443 15.8761C27.4008 17.6127 28 19.598 28 21.7068C28 28.5271 21.732 34.056 14 34.056C6.26801 34.056 0 28.5271 0 21.7068C0 19.8938 0.44293 18.172 1.23855 16.6211Z" fill="#FE6E6E"/>
<path fill-rule="evenodd" clip-rule="evenodd" d="M9.17783 23.4821C10.2714 20.8058 13.3015 16.4624 14.4244 16.4213C15.4833 16.3825 17.9393 20.5409 19.1125 23.2186C19.5603 24.0054 19.8154 24.9115 19.8154 25.8758C19.8154 28.8988 17.3082 31.3494 14.2154 31.3494C11.1226 31.3494 8.61539 28.8988 8.61539 25.8758C8.61539 25.0174 8.81753 24.2052 9.17783 23.4821Z" fill="#FFF5A0"/>
<rect x="24.1231" y="34.9474" width="5.05263" height="20.6769" transform="rotate(90 24.1231 34.9474)" fill="#D9875A"/>
<rect x="26.7077" y="34.9474" width="5.05263" height="5.16923" rx="2.52632" transform="rotate(90 26.7077 34.9474)" fill="#FBAD83"/>
<rect x="6.03076" y="34.9474" width="5.05263" height="5.16923" rx="2.52632" transform="rotate(90 6.03076 34.9474)" fill="#FBAD83"/>
<rect x="16.3692" y="34.9474" width="5.05263" height="5.16923" rx="2.52632" transform="rotate(90 16.3692 34.9474)" fill="#FBAD83"/>
</svg>
